<svg width="26" height="30" viewBox="0 0 26 30" fill="none" xmlns="http://www.w3.org/2000/svg">
  <path
    d="M4.25203 24.7561C-1.41002 19.0941 -1.41002 9.91407 4.25203 4.25203C9.83543 -1.33138 18.8397 -1.40893 24.5182 4.01939L24.7561 4.25203L25.2936 4.78955L23.0354 7.1003L22.4716 6.53653C18.0713 2.13617 10.9369 2.13617 6.53653 6.53653C2.13617 10.9369 2.13617 18.0713 6.53653 22.4716C10.8647 26.7998 17.8381 26.8708 22.253 22.6845L22.4716 22.4716L23.0445 21.8987L25.3303 24.182C25.1729 24.3393 24.7561 24.7561 24.7561 24.7561C19.0941 30.4182 9.91407 30.4182 4.25203 24.7561Z"
    fill="#32C5FF" />
  <path d="M21.16 8.54395L23.544 10.7762L12.3913 21.544L6.54395 15.8983L8.92792 13.6661L12.3907 17.0098L21.16 8.54395Z" fill="#32C5FF" />
</svg>